<?xml version="1.0" encoding="UTF-8"?>
<!-- Generator: visioncortex VTracer 0.6.3 -->
<svg version="1.1" xmlns="http://www.w3.org/2000/svg" width="400" height="400">
<path d="M0,0 L400,0 L400,400 L336,400 L334,384 L329,371 L328,365 L338,364 L338,362 L348,359 L348,357 L351,356 L360,344 L364,334 L365,330 L366,116 L370,111 L369,101 L366,87 L365,68 L363,62 L360,55 L357,50 L357,48 L353,46 L352,43 L350,43 L350,41 L346,40 L336,36 L331,35 L255,35 L253,34 L252,27 L242,30 L230,35 L68,35 L56,39 L50,43 L48,43 L46,47 L43,48 L41,52 L36,64 L35,67 L34,245 L31,251 L33,255 L34,257 L35,332 L39,342 L44,350 L44,352 L47,353 L47,355 L50,355 L54,359 L62,363 L72,365 L136,366 L134,372 L129,381 L123,394 L120,400 L0,400 Z " fill="#F5E8D9" transform="translate(0,0)"/>
<path d="M0,0 L7,0 L26,6 L36,10 L33,23 L28,27 L24,28 L24,30 L28,29 L35,22 L44,18 L52,15 L57,16 L69,38 L73,48 L78,72 L86,92 L90,106 L93,127 L98,138 L101,148 L101,160 L-115,160 L-114,158 L-111,157 L-104,149 L-96,142 L-90,131 L-90,129 L-96,139 L-97,142 L-101,143 L-103,147 L-109,152 L-109,145 L-103,133 L-96,123 L-84,110 L-77,102 L-72,97 L-68,95 L-65,95 L-65,85 L-66,81 L-71,82 L-72,78 L-82,86 L-90,91 L-93,92 L-101,92 L-104,91 L-104,88 L-99,84 L-104,86 L-104,83 L-100,79 L-90,78 L-91,67 L-89,67 L-87,73 L-87,66 L-85,63 L-83,64 L-85,74 L-81,69 L-82,73 L-88,81 L-86,81 L-80,71 L-76,69 L-67,54 L-57,39 L-52,32 L-47,31 L-46,28 L-40,25 L-25,21 L-17,21 L-13,17 L-15,15 L-5,6 Z " fill="#28212C" transform="translate(235,240)"/>
<path d="M0,0 L160,0 L160,2 L128,15 L116,20 L112,21 L111,19 L101,22 L82,30 L73,35 L63,43 L54,54 L45,66 L40,71 L36,69 L36,72 L34,72 L34,70 L32,70 L32,62 L28,62 L28,72 L30,72 L30,78 L34,79 L35,81 L46,66 L48,66 L46,70 L39,80 L39,83 L37,84 L35,89 L31,92 L30,92 L26,98 L23,98 L23,101 L19,108 L15,112 L15,116 L3,124 L-7,131 L-9,131 L-9,135 L-1,135 L5,134 L-3,149 L-33,209 L-34,209 L-34,33 L-29,20 L-25,14 L-17,7 L-10,3 Z " fill="#C2BFBA" transform="translate(68,34)"/>
<path d="M0,0 L1,0 L1,213 L-3,225 L-9,234 L-14,240 L-17,240 L-17,242 L-23,245 L-27,245 L-27,247 L-37,248 L-38,250 L-41,229 L-45,215 L-53,195 L-58,171 L-63,159 L-74,139 L-80,140 L-92,144 L-102,153 L-104,154 L-106,153 L-106,151 L-98,146 L-93,141 L-89,137 L-84,131 L-78,120 L-72,121 L-70,114 L-63,113 L-56,110 L-49,99 L-38,81 L-36,65 L-31,48 L-24,33 L-14,18 L-6,8 Z " fill="#C0BCB7" transform="translate(365,117)"/>
<path d="M0,0 L1,2 L0,4 L-2,4 L-3,6 L-8,9 L-8,10 L1,6 L1,9 L5,5 L13,1 L15,2 L14,6 L12,6 L12,11 L10,16 L9,14 L4,13 L2,12 L2,15 L5,17 L2,19 L5,21 L4,25 L0,23 L-1,22 L-3,26 L-3,29 L4,30 L2,42 L-4,61 L-11,76 L-15,92 L-16,98 L-16,127 L-15,128 L-15,143 L-16,148 L-14,148 L-15,159 L-15,160 L-14,162 L-12,162 L-13,168 L-19,179 L-23,183 L-24,179 L-22,174 L-20,173 L-22,173 L-24,167 L-23,166 L-49,159 L-72,152 L-78,147 L-79,142 L-66,136 L-46,128 L-41,126 L-31,127 L-39,125 L-40,119 L-41,94 L-40,90 L-35,81 L-23,62 L-15,49 L-12,40 L-15,41 L-15,47 L-25,63 L-33,76 L-42,91 L-55,99 L-57,99 L-57,96 L-55,96 L-55,93 L-58,93 L-58,97 L-62,97 L-58,99 L-62,100 L-61,103 L-86,118 L-97,124 L-99,123 L-98,118 L-60,42 L-56,39 L-54,35 L-47,30 L-41,28 L-36,30 L-34,25 L-25,19 L-29,18 L-17,13 L-14,12 L-17,12 L-21,13 L-17,9 Z M-35,130 L-33,137 L-27,138 L-23,139 L-21,138 L-21,136 L-19,136 L-19,134 L-23,132 L-24,131 L-31,131 L-32,133 L-33,130 Z " fill="#3A3138" transform="translate(130,129)"/>
<path d="M0,0 L6,5 L13,13 L22,21 L40,27 L65,34 L74,36 L73,38 L70,39 L57,75 L54,84 L54,90 L60,91 L62,85 L73,72 L77,71 L76,75 L66,85 L66,88 L71,88 L81,81 L92,79 L98,74 L106,74 L118,68 L125,62 L130,59 L130,63 L136,62 L137,67 L137,75 L136,77 L126,82 L119,91 L110,100 L103,109 L38,108 L26,105 L17,100 L16,97 L13,97 L9,92 L3,82 L0,74 Z " fill="#C2BDB7" transform="translate(34,258)"/>
<path d="M0,0 L18,4 L59,13 L63,15 L60,22 L56,21 L55,19 L50,18 L49,21 L38,19 L33,18 L20,17 L19,15 L15,16 L14,22 L21,23 L25,25 L39,29 L53,31 L54,33 L57,33 L56,29 L62,30 L61,33 L57,35 L53,41 L48,45 L47,47 L39,50 L22,54 L17,61 L18,60 L22,57 L22,60 L28,58 L28,60 L17,64 L13,66 L11,65 L8,68 L2,66 L-17,56 L-28,50 L-31,50 L-29,51 L-30,54 L-36,54 L-38,53 L-39,50 L-46,49 L-63,48 L-63,46 L-67,45 L-67,42 L-69,42 L-68,40 L-65,41 L-62,32 L-65,31 L-65,27 L-44,18 L-27,11 L-23,10 L-11,10 L-7,9 L-7,11 L-5,11 L-6,13 L-9,13 L0,16 L0,12 L-4,11 L-5,9 L-6,7 L-10,9 L-18,8 L-20,6 L-14,3 L-4,3 Z " fill="#27212A" transform="translate(273,47)"/>
<path d="M0,0 L1,2 L79,2 L92,6 L98,9 L98,11 L100,11 L106,18 L111,26 L113,35 L114,36 L115,49 L113,52 L113,49 L103,48 L92,60 L85,69 L78,70 L65,85 L54,98 L48,105 L45,104 L38,93 L33,88 L31,85 L34,82 L42,79 L46,78 L46,80 L48,79 L48,76 L51,74 L56,75 L58,74 L57,78 L60,76 L69,76 L70,73 L72,73 L73,67 L81,63 L83,63 L85,59 L92,52 L98,45 L97,40 L92,37 L84,35 L83,30 L57,24 L26,17 L21,16 L17,19 L7,19 L-12,27 L-27,33 L-29,32 L-22,27 L-16,24 L-9,14 L-5,12 L-4,9 L-1,6 L-1,1 Z " fill="#C1BDB9" transform="translate(252,32)"/>
<path d="M0,0 L3,0 L2,5 L-2,8 L-4,8 L-6,12 L-11,15 L-18,19 L-19,22 L-22,22 L-22,24 L-27,29 L-32,31 L-36,39 L-39,43 L-39,48 L-34,47 L-24,38 L-22,38 L-22,43 L-25,43 L-25,45 L-29,46 L-29,48 L-37,53 L-32,53 L-36,55 L-36,57 L-33,57 L-34,61 L-39,62 L-39,67 L-41,67 L-40,75 L-43,79 L-40,76 L-37,77 L-39,77 L-39,81 L-36,83 L-36,85 L-40,84 L-39,87 L-37,88 L-37,90 L-30,91 L-29,89 L-27,94 L-30,97 L-33,99 L-35,105 L-37,110 L-42,119 L-50,131 L-58,143 L-66,154 L-67,158 L-69,158 L-71,163 L-76,170 L-78,167 L-73,162 L-72,159 L-75,162 L-74,153 L-74,152 L-75,153 L-76,160 L-78,159 L-78,154 L-79,157 L-83,157 L-84,162 L-89,161 L-90,166 L-93,169 L-92,172 L-90,170 L-87,171 L-91,175 L-93,175 L-93,178 L-90,177 L-90,179 L-84,179 L-84,180 L-93,180 L-98,185 L-109,187 L-119,194 L-124,194 L-125,190 L-114,179 L-113,176 L-117,177 L-116,174 L-113,175 L-118,163 L-114,158 L-108,160 L-103,161 L-99,156 L-104,152 L-101,149 L-96,148 L-90,150 L-86,150 L-82,149 L-83,141 L-85,141 L-86,132 L-84,132 L-84,130 L-82,130 L-82,128 L-74,124 L-66,118 L-64,118 L-62,114 L-53,106 L-51,106 L-51,104 L-46,99 L-45,97 L-43,97 L-45,91 L-50,85 L-48,82 L-51,82 L-55,77 L-55,75 L-57,74 L-47,64 L-44,61 L-46,55 L-46,41 L-39,30 L-30,21 L-16,10 L-8,5 L-5,4 L-2,1 Z M-42,111 L-48,116 L-48,118 L-52,120 L-56,124 L-56,126 L-61,128 L-61,130 L-66,132 L-71,138 L-71,146 L-64,145 L-62,141 L-62,138 L-60,138 L-60,136 L-56,134 L-51,129 L-44,119 L-40,111 Z " fill="#3C333A" transform="translate(224,153)"/>
<path d="M0,0 L1,4 L5,2 L9,2 L10,0 L14,6 L14,16 L10,27 L10,39 L15,54 L19,67 L18,70 L12,71 L12,75 L8,79 L5,84 L0,84 L-3,78 L-8,79 L-5,81 L-6,84 L-4,84 L-3,81 L-1,82 L-2,85 L-9,84 L-6,87 L-6,89 L-4,90 L-7,91 L-9,95 L-13,96 L-14,93 L-14,85 L-11,76 L-9,67 L-9,51 L-11,37 L-13,36 L-8,22 Z " fill="#5D5256" transform="translate(143,162)"/>
<path d="M0,0 L5,1 L9,3 L9,5 L15,6 L16,11 L14,19 L20,18 L23,20 L24,18 L24,20 L28,17 L30,18 L27,21 L36,21 L34,31 L33,36 L17,41 L14,40 L14,38 L12,38 L11,35 L11,32 L9,31 L9,29 L4,31 L5,28 L15,26 L7,27 L-8,31 L-11,33 L-13,37 L-16,37 L-17,32 L-14,33 L-14,31 L-17,30 L-32,29 L-32,15 L-39,13 L-41,18 L-43,16 L-42,8 L-29,5 L-23,4 L-14,2 L-1,1 Z " fill="#4F4955" transform="translate(241,114)"/>
<path d="M0,0 L3,0 L4,12 L4,31 L0,31 L0,33 L-15,39 L-25,43 L-36,47 L-41,46 L-48,38 L-55,30 L-54,28 L-51,29 L-45,25 L-36,20 L-31,17 L-24,15 L-10,6 L-4,4 L-4,6 L-1,6 L-1,4 L-3,4 L-3,2 Z " fill="#3B3239" transform="translate(85,223)"/>
<path d="M0,0 L4,0 L9,9 L11,9 L15,7 L17,8 L16,10 L20,9 L20,11 L14,13 L13,16 L16,16 L17,13 L29,13 L29,11 L31,11 L31,14 L27,15 L41,16 L37,18 L36,19 L16,21 L11,23 L2,24 L-5,25 L-5,33 L-2,30 L6,31 L5,46 L20,46 L23,47 L26,48 L24,48 L22,52 L21,51 L19,56 L16,59 L15,62 L10,63 L-1,71 L-8,77 L-13,79 L-18,83 L-19,80 L-16,79 L-10,63 L-10,55 L-11,50 L-11,39 L-9,33 L-9,29 L-11,33 L-11,28 L-16,29 L-15,27 L-11,27 L-9,23 L-4,20 L-2,15 L0,15 Z " fill="#574E53" transform="translate(204,97)"/>
<path d="M0,0 L6,0 L9,3 L14,24 L13,30 L2,43 L-9,57 L-20,71 L-23,76 L-24,76 L-24,71 L-28,69 L-27,67 L-24,63 L-24,56 L-14,43 L-15,34 L-18,20 L-14,15 L-9,10 L-2,3 Z M-25,76 Z " fill="#28212A" transform="translate(355,82)"/>
<path d="M0,0 L3,1 L3,3 L-5,10 L-9,14 L-11,14 L-13,19 L-17,23 L-46,38 L-51,39 L-74,44 L-74,39 L-77,42 L-80,42 L-86,44 L-91,44 L-91,46 L-95,45 L-98,41 L-97,39 L-94,40 L-96,38 L-95,35 L-73,26 L-70,27 L-70,29 L-63,28 L-54,24 L-46,26 L-46,31 L-43,31 L-44,23 L-47,22 L-44,21 L-44,18 L-20,8 Z " fill="#2B252C" transform="translate(250,26)"/>
<path d="M0,0 L2,0 L4,12 L4,23 L-1,44 L-2,51 L-1,55 L4,55 L16,43 L24,36 L32,29 L35,31 L35,33 L37,33 L38,40 L38,44 L37,50 L35,50 L33,54 L29,58 L27,58 L27,60 L23,61 L21,59 L22,55 L34,44 L26,50 L20,56 L17,56 L14,61 L5,69 L0,68 L0,66 L-6,64 L-9,47 L-9,26 L-5,10 Z " fill="#3A3139" transform="translate(130,203)"/>
<path d="M0,0 L14,0 L16,3 L14,3 L14,7 L9,7 L6,8 L4,12 L0,17 L-5,22 L-12,30 L-18,41 L-19,46 L-28,46 L-28,51 L-24,52 L-25,54 L-32,52 L-31,40 L-33,25 L-36,14 L-33,12 L-30,12 L-30,10 L-22,6 L-10,2 L-1,1 Z " fill="#564D52" transform="translate(272,174)"/>
<path d="M0,0 L3,1 L-3,5 L-6,5 L-8,10 L-11,11 L-11,13 L-16,18 L-20,20 L-22,25 L-44,29 L-48,31 L-48,29 L-52,31 L-59,39 L-69,47 L-75,54 L-77,54 L-78,57 L-80,57 L-80,59 L-87,65 L-88,68 L-99,75 L-102,75 L-102,77 L-110,82 L-112,82 L-110,78 L-94,57 L-92,52 L-90,51 L-85,52 L-78,45 L-76,45 L-74,41 L-66,34 L-61,29 L-56,24 L-48,19 L-31,14 L-28,15 L-27,14 L-23,11 L-20,11 L-19,7 L-22,6 L-15,4 L-1,1 Z " fill="#282229" transform="translate(196,66)"/>
<path d="M0,0 L1,3 L0,7 L9,10 L19,11 L22,9 L14,9 L12,6 L13,5 L26,5 L26,8 L38,8 L39,10 L51,13 L51,15 L54,16 L52,16 L50,22 L54,23 L50,24 L42,22 L36,22 L35,25 L31,25 L29,28 L21,30 L20,34 L13,33 L11,31 L18,32 L18,30 L15,29 L13,28 L12,26 L9,26 L9,24 L11,22 L8,22 L7,24 L3,24 L1,28 L-1,28 L-2,26 L-7,27 L-10,26 L-10,24 L-14,22 L-13,19 L-9,21 L-10,19 L-13,17 L-12,13 L-7,12 L-2,16 L4,19 L-8,11 L-5,9 L-4,8 L-7,8 L-5,3 Z " fill="#584E53" transform="translate(197,217)"/>
<path d="M0,0 L6,1 L4,2 L4,7 L11,8 L17,11 L20,13 L29,15 L36,21 L38,25 L37,30 L34,31 L32,35 L27,37 L23,38 L18,37 L16,38 L14,37 L15,24 L8,24 L9,21 L4,21 L4,17 L-18,17 L-18,16 L-6,15 L-6,12 L-8,12 L-8,14 L-20,15 L-21,17 L-24,17 L-23,13 L-17,12 L-17,10 L-21,11 L-22,9 L-25,10 L-23,12 L-28,11 L-33,3 L-33,1 L-14,1 L-8,2 L-8,5 L-4,4 L2,4 L3,2 L0,1 Z " fill="#3E3843" transform="translate(241,96)"/>
<path d="M0,0 L4,2 L5,6 L1,5 L3,9 L6,9 L7,7 L12,7 L13,6 L18,6 L19,4 L23,5 L25,1 L25,7 L47,2 L49,2 L48,5 L43,6 L23,10 L25,11 L24,15 L18,18 L17,20 L13,19 L-6,25 L-12,29 L-15,30 L-17,34 L-20,35 L-22,39 L-25,42 L-27,42 L-28,45 L-36,52 L-42,57 L-46,55 L-45,50 L-35,37 L-23,21 L-17,17 L-12,15 L-3,9 L-2,5 L-6,6 L-12,8 L-8,4 Z " fill="#41393C" transform="translate(152,62)"/>
<path d="M0,0 L6,1 L6,3 L4,3 L2,7 L-3,13 L-3,22 L-1,33 L-1,45 L-4,54 L-11,69 L-11,81 L-8,89 L-5,90 L-10,94 L-13,92 L-14,90 L-14,94 L-11,95 L-13,99 L-15,97 L-19,86 L-20,81 L-20,65 L-14,49 L-14,41 L-18,29 L-20,25 L-16,22 L-14,22 L-14,20 L-9,18 L-9,11 L-12,9 L-13,5 L-10,2 L-10,4 L-8,4 L-8,2 Z " fill="#5E5357" transform="translate(180,127)"/>
<path d="M0,0 L8,1 L8,3 L11,3 L11,5 L15,6 L15,10 L14,13 L18,15 L17,22 L12,24 L12,26 L8,29 L6,29 L10,35 L13,45 L13,53 L7,69 L7,85 L11,98 L12,104 L8,110 L-2,119 L-4,118 L2,111 L0,110 L4,109 L6,107 L7,106 L3,93 L-2,78 L-2,66 L2,55 L2,45 L-3,37 L-5,36 L-5,38 L-10,38 L-11,33 L-2,33 L4,32 L4,26 L8,23 L10,23 L11,19 L10,18 L10,15 L10,13 L6,16 L4,15 L5,14 L3,13 L3,10 L-3,10 L-3,5 L-5,4 L-1,2 Z " fill="#8B8181" transform="translate(154,123)"/>
<path d="M0,0 L2,4 L6,22 L6,26 L2,26 L2,28 L-7,34 L-11,38 L-24,37 L-24,34 L-29,34 L-27,35 L-28,39 L-39,48 L-44,47 L-42,46 L-43,41 L-39,37 L-36,29 L-31,28 L-27,23 L-25,23 L-25,21 L-22,21 L-21,17 L-10,11 L-5,6 L-1,3 Z " fill="#564D53" transform="translate(227,154)"/>
<path d="M0,0 L12,0 L9,1 L10,5 L10,14 L7,16 L5,20 L0,23 L-2,26 L-7,28 L-10,31 L-15,30 L-23,31 L-23,33 L-25,33 L-25,31 L-27,31 L-32,23 L-41,21 L-41,18 L-27,10 L-19,6 L-15,7 L-17,7 L-17,10 L-5,10 L-5,8 L-2,5 L-3,1 Z " fill="#393038" transform="translate(195,98)"/>
<path d="M0,0 L4,1 L6,0 L5,9 L4,11 L4,22 L5,27 L5,35 L-1,51 L-4,53 L-2,53 L2,49 L4,50 L-5,59 L-11,68 L-12,66 L-8,60 L-10,61 L-12,63 L-16,64 L-17,60 L-13,51 L-12,47 L-12,35 L-14,24 L-14,15 L-6,5 L-4,5 L-3,1 Z " fill="#8B8181" transform="translate(190,125)"/>
<path d="M0,0 L2,2 L-2,7 L2,5 L2,12 L4,11 L3,8 L4,6 L8,8 L8,12 L10,12 L12,9 L12,11 L15,8 L16,5 L22,5 L22,8 L21,10 L18,9 L17,11 L19,11 L17,15 L10,24 L5,38 L4,50 L-4,66 L-6,68 L-7,63 L-5,46 L-1,47 L-1,50 L2,50 L2,48 L0,48 L0,46 L-5,45 L-5,43 L-3,43 L-3,39 L-5,39 L-6,42 L-7,37 L-5,37 L-5,34 L-3,34 L-4,32 L-6,33 L-7,30 L-7,23 L-5,20 L-7,20 L-7,13 L-8,10 L-1,1 Z " fill="#29222A" transform="translate(308,130)"/>
<path d="M0,0 L2,3 L2,24 L-2,26 L-10,27 L-10,25 L-32,28 L-46,33 L-48,33 L-47,26 L-42,20 L-36,18 L-34,16 L-15,11 L-7,4 L-5,5 L-5,9 L-3,9 L-1,13 L0,7 Z " fill="#413D44" transform="translate(290,140)"/>
<path d="M0,0 L3,0 L7,6 L10,6 L12,7 L9,11 L15,17 L15,22 L13,22 L11,26 L9,29 L7,29 L7,31 L-4,40 L-8,44 L-19,52 L-20,50 L-29,50 L-34,51 L-33,46 L-22,37 L-18,33 L-16,34 L-19,38 L-17,38 L-16,35 L-9,35 L-9,33 L-2,27 L-1,25 L1,25 L1,18 L1,15 L1,8 L-1,8 L-3,3 Z " fill="#6E6363" transform="translate(166,228)"/>
<path d="M0,0 L5,1 L6,6 L5,9 L3,8 L4,12 L3,13 L5,14 L6,12 L6,18 L-1,26 L-3,31 L-10,34 L-18,31 L-31,26 L-32,24 L-35,23 L-33,17 L-34,15 L-29,14 L-28,17 L-19,19 L-15,20 L-10,12 L-7,6 Z " fill="#554D52" transform="translate(282,216)"/>
<path d="M0,0 L7,0 L4,2 L1,3 L-6,3 L-5,5 L-2,4 L-2,6 L3,7 L1,8 L1,13 L3,13 L4,18 L3,20 L-4,22 L-8,27 L-11,32 L-12,37 L-14,37 L-15,39 L-18,39 L-24,13 L-19,7 L-13,5 L-12,3 Z " fill="#595156" transform="translate(252,139)"/>
<path d="M0,0 L5,1 L5,20 L-11,28 L-18,32 L-20,32 L-20,34 L-24,38 L-30,48 L-32,47 L-31,43 L-35,44 L-34,41 L-31,41 L-30,39 L-28,38 L-27,33 L-19,20 L-11,11 L-9,11 L-7,7 L-3,2 Z " fill="#443D40" transform="translate(281,180)"/>
<path d="M0,0 L8,1 L7,12 L12,13 L12,11 L15,12 L15,16 L12,18 L7,18 L6,17 L-1,36 L-6,50 L-9,51 L-10,50 L-17,59 L-18,55 L-12,42 L-6,23 L-2,5 Z " fill="#6E6364" transform="translate(137,148)"/>
<path d="M0,0 L7,1 L11,17 L11,22 L5,26 L2,26 L2,24 L0,24 L2,20 L2,19 L-5,17 L-10,21 L-11,23 L-7,19 L-3,21 L-3,25 L-7,27 L-9,31 L-13,33 L-15,29 L-14,27 L-18,27 L-20,29 L-20,27 L-22,26 L-13,15 L-4,5 Z " fill="#2C252D" transform="translate(331,103)"/>
<path d="M0,0 L2,3 L5,2 L12,2 L14,3 L14,5 L10,6 L10,8 L8,8 L8,10 L6,10 L7,19 L9,19 L11,27 L5,30 L1,28 L-3,27 L-6,24 L-10,23 L-13,24 L-14,23 L-19,32 L-20,30 L-15,20 L-13,20 L-10,10 L-3,2 Z " fill="#584D52" transform="translate(132,275)"/>
<path d="M0,0 L5,1 L2,5 L4,6 L-2,11 L-12,24 L-10,28 L-10,31 L-26,36 L-35,40 L-41,42 L-47,44 L-48,40 L-50,39 L-41,35 L-43,33 L-39,32 L-39,34 L-27,33 L-27,31 L-30,30 L-24,29 L-24,28 L-25,24 L-22,20 L-20,20 L-19,16 L-17,16 L-17,13 L-12,13 L-5,6 L-1,2 Z " fill="#28222A" transform="translate(206,66)"/>
<path d="M0,0 L2,0 L1,4 L12,6 L16,11 L-1,12 L-5,14 L-5,17 L-15,15 L-31,12 L-39,10 L-43,8 L-38,6 L-34,7 L-34,9 L-29,9 L-27,8 L-27,5 L-23,3 L-13,4 L-15,2 L-10,1 L-3,5 Z " fill="#2E2932" transform="translate(335,63)"/>
<path d="M0,0 L3,1 L3,8 L0,9 L-9,9 L-9,7 L-12,8 L-10,10 L-18,14 L-20,14 L-20,16 L-23,16 L-26,13 L-28,17 L-30,18 L-32,22 L-48,31 L-61,39 L-63,38 L-48,27 L-46,27 L-46,25 L-41,20 L-31,11 L-26,7 L-18,4 Z " fill="#352925" transform="translate(176,91)"/>
<path d="M0,0 L1,4 L-5,18 L-8,32 L-8,51 L-7,56 L-7,65 L-8,63 L-10,63 L-10,84 L-8,84 L-8,82 L-6,83 L-11,88 L-12,85 L-11,80 L-13,80 L-12,60 L-14,59 L-14,30 L-10,11 L-8,8 L-7,9 Z " fill="#483D3E" transform="translate(127,197)"/>
<path d="M0,0 L11,0 L28,1 L28,10 L27,12 L37,13 L34,11 L34,6 L40,5 L40,7 L37,7 L38,9 L41,9 L40,13 L43,16 L38,17 L26,14 L24,12 L13,11 L13,8 L-1,8 L-8,9 L-6,8 L-5,4 L-3,4 L-3,1 Z " fill="#7F7571" transform="translate(210,214)"/>
<path d="M0,0 L1,2 L-2,12 L-4,27 L-10,39 L-14,40 L-19,38 L-16,36 L-21,38 L-24,38 L-25,36 L-17,21 L-17,19 L-17,10 L-16,10 L-15,18 L-11,24 L-10,28 L-9,26 L-8,17 L-7,13 L-9,9 L-5,2 Z " fill="#29222A" transform="translate(331,158)"/>
<path d="M0,0 L4,2 L6,7 L10,8 L9,10 L10,14 L9,19 L11,19 L10,22 L10,29 L13,31 L13,33 L11,33 L11,36 L9,36 L10,39 L13,38 L13,42 L11,42 L11,44 L16,45 L16,47 L18,47 L18,49 L13,49 L12,46 L9,61 L7,61 L8,66 L6,67 L6,29 L4,24 L2,17 L-2,5 L-2,2 L0,2 Z " fill="#30292F" transform="translate(292,131)"/>
<path d="M0,0 L2,0 L2,5 L0,7 L-2,8 L-2,10 L-7,14 L-14,19 L-14,17 L-16,18 L-17,21 L-19,21 L-23,17 L-25,24 L-22,25 L-18,26 L-17,24 L-18,29 L-19,30 L-30,29 L-33,27 L-32,23 L-26,15 L-18,9 L-2,1 Z " fill="#51484A" transform="translate(286,203)"/>
<path d="M0,0 L2,1 L-3,10 L-9,24 L-13,38 L-14,50 L-16,48 L-18,52 L-20,52 L-23,61 L-35,82 L-37,86 L-45,86 L-41,82 L-37,78 L-32,71 L-26,60 L-18,44 L-16,35 L-14,21 L-9,9 L-7,8 L-5,9 L-4,5 L-2,5 Z " fill="#6C6159" transform="translate(343,144)"/>
<path d="M0,0 L3,0 L4,3 L1,8 L2,15 L6,13 L10,7 L11,10 L10,14 L4,24 L-1,31 L-6,34 L-8,34 L-8,13 L-6,13 L-6,7 L-5,10 L-3,10 L-2,4 Z " fill="#30292F" transform="translate(305,195)"/>
<path d="M0,0 L1,0 L2,18 L4,29 L4,35 L10,37 L10,39 L13,39 L11,43 L4,49 L-1,55 L-3,55 L-4,52 L0,48 L-1,49 L-3,49 L-4,26 L-3,28 L-1,28 L-1,21 L-2,14 L0,14 Z " fill="#706566" transform="translate(120,232)"/>
<path d="M0,0 L0,3 L0,8 L-2,8 L-1,9 L-1,21 L-3,25 L-1,30 L-2,32 L-3,41 L-6,44 L-8,38 L-11,33 L-12,22 L-10,18 L-9,11 Z " fill="#362F34" transform="translate(326,143)"/>
<path d="M0,0 L2,1 L-8,17 L-12,22 L-16,25 L-18,25 L-18,27 L-20,27 L-21,33 L-26,35 L-29,35 L-29,27 L-24,21 L-19,19 L-19,17 L-14,15 L-12,11 L-8,7 L-6,7 L-4,3 Z " fill="#5D5358" transform="translate(182,264)"/>
<path d="M0,0 L2,4 L-1,7 L7,8 L7,11 L17,11 L18,8 L26,5 L29,2 L29,5 L21,13 L15,17 L11,18 L2,18 L-3,16 L-7,17 L-13,24 L-13,21 L-10,15 L-10,12 L-8,12 L-7,10 L-4,10 L-2,4 Z " fill="#31292E" transform="translate(200,239)"/>
<path d="M0,0 L7,0 L5,2 L2,3 L1,5 L-11,7 L-22,11 L-25,13 L-28,13 L-28,15 L-33,17 L-29,33 L-29,43 L-27,44 L-29,44 L-30,55 L-33,55 L-33,35 L-37,23 L-37,21 L-40,20 L-35,14 L-22,7 L-13,5 L-4,1 Z " fill="#837873" transform="translate(270,171)"/>
<path d="M0,0 L1,0 L1,5 L7,5 L7,8 L10,9 L14,7 L16,8 L15,12 L15,15 L14,18 L10,21 L8,21 L8,27 L0,29 L-6,29 L-5,19 L-4,21 L-1,20 L0,23 L-1,25 L7,24 L8,17 L8,15 L4,15 L-1,18 L-4,18 L-4,3 L-2,2 L-1,10 Z " fill="#AFA294" transform="translate(150,128)"/>
<path d="M0,0 L3,0 L3,4 L9,3 L8,7 L-5,14 L-8,17 L-11,17 L-11,19 L-15,19 L-14,17 L-12,18 L-12,15 L-18,18 L-22,18 L-23,15 L-19,11 Z " fill="#655852" transform="translate(142,115)"/>
<path d="M0,0 L3,0 L7,11 L8,14 L8,23 L6,23 L3,17 L-3,16 L-7,13 L-11,13 L-13,15 L-16,21 L-19,19 L-22,22 L-24,21 L-12,10 L-1,1 Z " fill="#4E4643" transform="translate(230,192)"/>
<path d="M0,0 L7,1 L8,4 L0,12 L2,15 L3,15 L10,8 L12,9 L0,21 L-14,19 L-14,18 L-9,18 L-8,14 L-11,14 L-11,12 L-10,11 L-13,10 L-6,5 L-4,5 L-4,3 L0,2 Z M-3,21 Z " fill="#564D53" transform="translate(199,196)"/>
<path d="M0,0 L3,1 L-15,9 L-25,21 L-27,24 L-25,26 L-15,26 L-13,27 L-13,29 L4,29 L11,30 L12,35 L10,35 L10,32 L-19,32 L-32,34 L-47,39 L-52,40 L-49,37 L-34,32 L-27,30 L-30,26 L-28,22 L-18,9 L-13,5 Z " fill="#807976" transform="translate(223,66)"/>
<path d="M0,0 L2,1 L-3,5 L-7,9 L0,7 L0,11 L2,12 L-5,16 L-12,19 L-22,24 L-28,24 L-35,28 L-33,24 L-28,21 L-26,21 L-26,19 L-15,13 L-12,12 L-11,8 L-6,3 L-4,3 L-4,1 Z " fill="#72665F" transform="translate(120,122)"/>
<path d="M0,0 L5,2 L1,4 L1,7 L-9,7 L-24,11 L-28,12 L-29,14 L-33,17 L-35,17 L-33,12 L-27,2 L-21,1 L-15,3 L-5,2 Z " fill="#4B4446" transform="translate(219,255)"/>
<path d="M0,0 L6,0 L3,3 L-1,6 L-6,6 L-5,8 L-14,15 L-18,19 L-23,18 L-23,21 L-25,21 L-26,25 L-30,29 L-30,31 L-28,32 L-31,35 L-34,33 L-35,29 L-29,21 L-21,13 L-10,5 L-5,4 L-5,2 Z " fill="#241A17" transform="translate(212,61)"/>
<path d="M0,0 L5,0 L4,27 L5,27 L5,38 L4,42 L0,42 L-1,34 L-3,34 L-3,32 L-1,32 L-1,19 Z " fill="#413D44" transform="translate(291,169)"/>
<path d="M0,0 L2,1 L0,3 L-3,3 L-4,9 L-7,12 L-16,13 L-19,15 L-22,14 L-20,12 L-25,11 L-28,13 L-26,15 L-30,16 L-30,14 L-32,13 L-30,13 L-30,11 L-27,11 L-27,8 L-14,3 Z " fill="#AFA7A3" transform="translate(328,96)"/>
<path d="M0,0 L2,1 L-4,6 L0,7 L-14,20 L-14,22 L-19,24 L-27,32 L-28,28 L-28,25 L-17,14 L-15,14 L-13,10 Z " fill="#A2917B" transform="translate(227,182)"/>
<path d="M0,0 L3,1 L3,2 L8,3 L4,5 L-9,7 L-22,12 L-32,15 L-36,14 L-32,11 L-30,11 L-30,9 L-25,6 L-21,4 L-9,1 Z " fill="#574E4B" transform="translate(275,166)"/>
<path d="M0,0 L2,4 L6,13 L6,15 L3,15 L-1,22 L-8,30 L-11,35 L-12,33 L-8,20 L-5,12 Z " fill="#231A20" transform="translate(105,313)"/>
<path d="M0,0 L1,3 L3,3 L4,1 L9,3 L9,4 L15,6 L17,12 L-14,12 L-9,8 L-7,7 L-5,9 L-2,2 L0,2 Z " fill="#544B52" transform="translate(219,203)"/>
<path d="M0,0 L7,0 L5,4 L-6,16 L-9,16 L-11,15 L-12,16 L-16,18 L-16,14 L-8,4 L-6,4 L-6,2 Z " fill="#34292A" transform="translate(343,76)"/>
<path d="M0,0 L4,2 L-24,17 L-27,20 L-21,18 L-15,17 L-14,19 L-16,20 L-18,24 L-29,25 L-33,24 L-33,20 L-21,12 L-11,5 L-5,3 Z " fill="#6B6564" transform="translate(92,145)"/>
<path d="M0,0 L2,2 L-7,12 L-11,17 L-13,17 L-15,21 L-17,24 L-20,24 L-21,26 L-21,23 L-26,28 L-37,40 L-46,51 L-52,58 L-56,57 L-51,52 L-40,40 L-31,29 L-24,21 L-17,21 L-15,17 L-4,5 Z " fill="#7C756F" transform="translate(354,80)"/>
<path d="M0,0 L2,0 L2,2 L4,2 L4,4 L-4,11 L-11,17 L-14,21 L-16,21 L-16,23 L-22,27 L-28,28 L-27,25 L-25,25 L-24,22 L-16,15 L-8,8 L-5,4 L-3,4 L-2,1 Z " fill="#877A67" transform="translate(146,95)"/>
<path d="M0,0 L1,2 L2,0 L8,1 L11,3 L10,5 L8,4 L7,8 L7,5 L5,5 L4,8 L8,13 L4,15 L3,18 L-2,17 L-7,14 L-5,9 Z " fill="#382D2D" transform="translate(118,297)"/>
<path d="M0,0 L2,1 L1,25 L1,57 L8,57 L5,59 L-1,60 L-2,59 L-2,28 L-3,28 L-3,17 L-2,2 L0,2 Z " fill="#645A54" transform="translate(297,172)"/>
<path d="M0,0 L5,2 L22,3 L24,6 L20,7 L19,12 L13,11 L13,9 L4,9 L-1,8 L-1,2 Z " fill="#514C4A" transform="translate(288,61)"/>
<path d="M0,0 L4,1 L2,3 L11,5 L16,12 L13,13 L13,11 L2,9 L3,11 L-2,12 L-2,23 L-3,29 L-4,29 L-5,15 L-8,15 L-10,16 L-12,14 L-10,14 L-10,12 L-4,9 L-4,7 L-2,6 L-1,3 L-3,2 Z " fill="#6C5F59" transform="translate(152,115)"/>
<path d="M0,0 L3,3 L3,17 L4,23 L2,24 L4,25 L4,28 L0,29 L-3,24 L-4,20 L-4,8 Z " fill="#8B8181" transform="translate(172,188)"/>
<path d="M0,0 L2,1 L-1,4 L-6,9 L-20,22 L-28,29 L-31,30 L-33,36 L-29,38 L-35,37 L-34,30 L-21,17 L-10,8 L-2,1 Z " fill="#ACA090" transform="translate(232,187)"/>
<path d="M0,0 L2,2 L6,18 L8,20 L9,24 L9,37 L6,38 L6,31 L-1,30 L0,28 L2,28 L1,20 L1,7 L-2,1 Z " fill="#7E7A6F" transform="translate(290,136)"/>
<path d="M0,0 L3,2 L3,4 L8,3 L10,6 L15,4 L21,3 L19,6 L11,10 L8,12 L1,14 L-5,16 L-4,11 L1,8 L4,8 L4,6 L-5,8 L-3,4 Z " fill="#675A56" transform="translate(150,103)"/>
<path d="M0,0 L2,0 L4,6 L9,5 L7,7 L4,8 L3,14 L4,15 L8,11 L6,16 L2,20 L1,18 L-4,32 L-5,28 L-3,22 L-4,17 L-6,15 L-1,1 Z " fill="#675953" transform="translate(104,296)"/>
<path d="M0,0 L3,1 L4,4 L8,4 L6,9 L3,13 L2,10 L-2,16 L-1,18 L-6,18 L-8,15 L-7,8 L-2,1 Z " fill="#3F3837" transform="translate(313,193)"/>
<path d="M0,0 L4,1 L2,3 L-3,4 L-7,10 L-2,31 L-2,35 L3,34 L-1,38 L1,40 L-9,46 L-14,46 L-9,41 L-7,37 L-3,37 L-9,11 L-16,12 L-11,7 L-7,6 L-7,3 Z " fill="#857A74" transform="translate(236,143)"/>
<path d="M0,0 L3,1 L6,15 L6,31 L2,48 L0,49 L1,42 L4,28 L4,17 L3,12 L3,5 L0,8 L-5,21 L-7,28 L-8,24 L-6,12 Z " fill="#958B7F" transform="translate(129,198)"/>
<path d="M0,0 L2,1 L0,3 L5,1 L5,3 L1,6 L-13,11 L-32,21 L-45,27 L-47,26 L-37,20 L-9,5 Z " fill="#A49B91" transform="translate(111,138)"/>
<path d="M0,0 L2,2 L4,4 L3,9 L1,13 L-3,14 L-1,14 L-1,17 L-3,18 L-9,18 L-12,15 L-1,1 Z " fill="#3A3233" transform="translate(207,75)"/>
<path d="M0,0 L16,4 L22,7 L19,8 L3,3 L-4,3 L-11,11 L-20,18 L-25,20 L-35,21 L-41,19 L-47,19 L-45,16 L-40,17 L-37,18 L-28,18 L-21,15 L-11,6 L-6,1 Z " fill="#9C928D" transform="translate(239,238)"/>
<path d="M0,0 L1,3 L-6,15 L-10,20 L-16,27 L-19,28 L-17,18 L-16,16 L-22,15 L-26,13 L-23,12 L-14,15 L-8,13 L-6,7 Z " fill="#78716D" transform="translate(287,234)"/>
<path d="M0,0 L6,2 L11,2 L15,1 L18,3 L18,5 L21,6 L21,10 L12,9 L12,7 L16,5 L14,5 L14,3 L10,5 L-2,5 L-18,11 L-23,13 L-26,12 L-23,9 L-2,1 Z " fill="#605C5C" transform="translate(252,53)"/>
<path d="M0,0 L2,0 L2,6 L10,7 L14,9 L0,8 L-12,13 L-31,21 L-37,23 L-38,25 L-36,26 L-38,28 L-43,22 L-31,18 L-23,14 L-7,8 L-4,8 L-4,6 L0,6 Z " fill="#51474B" transform="translate(89,248)"/>
<path d="M0,0 L2,1 L3,3 L-13,11 L-23,19 L-28,27 L-30,27 L-28,22 L-23,13 L-20,12 L-20,10 L-4,2 Z " fill="#A79F90" transform="translate(281,202)"/>
<path d="M0,0 L1,0 L1,9 L-8,24 L-17,38 L-20,39 L-18,34 L-7,15 L-4,7 L-2,7 Z " fill="#3F372E" transform="translate(327,189)"/>
<path d="M0,0 L1,3 L5,3 L5,27 L3,31 L-2,30 L-3,22 L-6,21 L-5,16 L-3,16 L-3,11 L-7,9 L-5,6 L-1,6 Z M2,6 L-1,8 L-1,28 L3,28 L4,18 L4,6 Z " fill="#433C40" transform="translate(290,208)"/>
<path d="M0,0 L3,1 L-10,12 L-18,21 L-21,25 L-43,30 L-47,31 L-45,27 L-27,24 L-23,24 L-21,19 L-16,14 L-12,12 L-12,10 L-8,6 L-7,4 L-1,1 Z " fill="#706866" transform="translate(197,67)"/>
<path d="M0,0 L3,1 L2,7 L-7,15 L-13,24 L-16,26 L-19,25 L-15,22 L-16,20 L-11,16 L-9,10 Z " fill="#574F49" transform="translate(249,33)"/>
<path d="M0,0 L7,2 L9,1 L7,5 L5,12 L1,13 L-1,12 L-2,19 L-8,19 L-13,15 L-12,10 L-7,9 L-7,11 L-9,11 L-8,16 L-4,14 L1,9 L1,5 L-2,4 L-4,7 L-6,7 L-4,3 Z " fill="#7F776E" transform="translate(326,119)"/>
<path d="M0,0 L2,0 L1,4 L-4,7 L-11,15 L-12,18 L-16,19 L-16,21 L-38,32 L-41,34 L-44,34 L-44,36 L-51,38 L-47,34 L-18,19 L-15,18 L-13,13 L-8,8 Z " fill="#7B7370" transform="translate(251,29)"/>
<path d="M0,0 L7,2 L9,8 L5,7 L2,18 L-2,19 L-6,17 L-5,12 L-2,9 L0,11 L1,10 L-2,6 L1,5 L-1,2 Z " fill="#6D655D" transform="translate(132,141)"/>
<path d="M0,0 L2,0 L0,4 L-4,6 L-5,9 L-24,20 L-26,19 L-21,15 L-24,14 L-20,11 L-4,3 L-2,3 L-2,1 Z " fill="#3D3531" transform="translate(237,47)"/>
<path d="M0,0 L4,2 L4,5 L5,9 L2,20 L0,21 L-4,20 L-5,14 Z " fill="#4B4340" transform="translate(92,328)"/>
<path d="M0,0 L1,3 L-12,19 L-22,33 L-24,36 L-27,36 L-29,41 L-31,41 L-32,45 L-34,45 L-32,40 L-19,24 L-9,11 Z " fill="#7B746F" transform="translate(370,108)"/>
<path d="M0,0 L3,0 L3,3 L1,3 L0,7 L5,6 L16,6 L16,7 L6,8 L9,10 L18,10 L16,12 L12,14 L2,13 L-2,10 L-5,8 L-3,2 Z " fill="#716761" transform="translate(204,215)"/>
<path d="M0,0 L1,3 L-3,13 L-15,32 L-22,43 L-26,50 L-28,50 L-26,45 L-20,35 L-10,18 L-4,9 L-3,3 Z M-29,50 Z M-30,51 Z " fill="#51474B" transform="translate(118,167)"/>
<path d="M0,0 L4,2 L3,9 L1,20 L-2,21 L-3,24 L-4,22 L-2,18 L-5,17 L-4,10 Z " fill="#3B3332" transform="translate(98,312)"/>
<path d="M0,0 L1,2 L-9,18 L-16,28 L-26,43 L-31,52 L-34,54 L-33,49 L-26,39 L-18,27 L-10,15 L-3,4 Z " fill="#968A84" transform="translate(191,257)"/>
<path d="M0,0 L4,0 L4,8 L6,8 L6,10 L8,10 L8,7 L13,9 L7,17 L2,16 L2,10 L0,10 Z " fill="#BFBEB9" transform="translate(96,96)"/>
<path d="M0,0 L3,1 L5,4 L5,7 L8,8 L-4,20 L-9,20 L-11,15 L-10,8 L-9,8 L-8,18 L-4,17 L0,13 L-1,10 L-4,9 L-4,7 L3,7 L1,7 L-1,7 L-2,4 L-3,2 Z " fill="#7A6D69" transform="translate(138,239)"/>
<path d="M0,0 L10,1 L12,2 L12,4 L7,4 L7,23 L6,36 L4,33 L4,8 L0,6 L0,4 L2,3 L-1,1 Z " fill="#5C5553" transform="translate(284,165)"/>
<path d="M0,0 L3,3 L5,7 L5,12 L-4,15 L-11,15 L-7,10 L0,4 Z " fill="#322E37" transform="translate(278,121)"/>
<path d="M0,0 L2,1 L-6,8 L-8,10 L-4,9 L-7,12 L-20,17 L-25,17 L-24,14 L-6,4 Z " fill="#231D22" transform="translate(233,54)"/>
<path d="M0,0 L4,2 L5,4 L3,4 L2,11 L-3,13 L-9,13 L-8,11 L-6,12 L-7,8 L-9,8 L-8,5 Z " fill="#CCC0B0" transform="translate(155,141)"/>
<path d="M0,0 L8,4 L14,7 L15,4 L20,3 L22,3 L28,0 L31,1 L23,6 L19,8 L15,11 L11,10 L1,3 L-4,2 Z " fill="#736A68" transform="translate(267,108)"/>
<path d="M0,0 L2,1 L-8,10 L-17,22 L-31,41 L-35,46 L-37,45 L-25,29 L-13,13 L-4,3 Z " fill="#49413B" transform="translate(138,70)"/>
<path d="M0,0 L4,4 L2,4 L1,7 L-1,7 L-1,9 L-13,9 L-13,4 Z " fill="#524B54" transform="translate(191,99)"/>
<path d="M0,0 L2,0 L2,18 L1,22 L-3,22 L-3,2 Z " fill="#271F26" transform="translate(292,214)"/>
<path d="M0,0 L10,0 L7,2 L-9,6 L-22,11 L-26,12 L-25,7 L-7,2 Z " fill="#271F24" transform="translate(321,95)"/>
<path d="M0,0 L1,0 L3,11 L5,18 L-7,29 L-11,33 L-13,32 L-8,27 L-8,25 L-11,22 L-10,19 L-8,20 L-7,23 L-2,20 L0,16 L-3,15 L-2,13 L1,15 L0,10 Z " fill="#9E9188" transform="translate(176,197)"/>
<path d="M0,0 L3,1 L1,1 L0,3 L-3,3 L-3,5 L-7,8 L-5,9 L-22,20 L-34,31 L-36,30 L-28,22 L-17,14 L-12,11 L-15,9 L-6,4 L-4,4 L-4,2 Z " fill="#4B3E32" transform="translate(248,172)"/>
<path d="M0,0 L5,2 L8,0 L6,4 L-4,13 L-19,17 L-23,16 L-7,11 L-5,11 L-6,8 L-5,6 L-2,6 L-2,2 L0,2 Z " fill="#7D777B" transform="translate(279,139)"/>
<path d="M0,0 L1,2 L7,0 L5,4 L0,11 L-1,17 L-5,16 L-5,14 L-7,14 L-6,11 L-5,13 L-3,13 L-2,9 L-8,8 L-7,4 L-1,4 Z " fill="#40363C" transform="translate(332,127)"/>
<path d="M0,0 L2,1 L0,4 L-2,4 L-5,4 L-5,8 L-14,13 L-17,17 L-17,13 L-26,18 L-28,17 L-23,12 L-16,11 L-16,9 L-11,6 L-4,2 Z " fill="#8F837C" transform="translate(147,123)"/>
<path d="M0,0 L4,2 L6,4 L2,5 L2,7 L9,6 L6,7 L6,9 L9,10 L11,11 L11,13 L6,13 L3,14 L3,11 L-3,11 L-5,10 L-3,6 L0,5 Z " fill="#483F45" transform="translate(204,236)"/>
<path d="M0,0 L3,0 L3,2 L1,3 L3,4 L5,13 L1,12 L1,7 L-7,6 L-19,11 L-21,10 L-17,7 Z " fill="#403A41" transform="translate(203,45)"/>
<path d="M0,0 L10,0 L10,2 L22,2 L22,3 L14,4 L18,8 L17,11 L16,10 L1,9 L5,7 L9,5 L6,3 L5,2 L-2,2 Z " fill="#847B75" transform="translate(270,165)"/>
<path d="M0,0 L1,0 L1,25 L-2,28 L-6,27 L-3,24 L-2,1 Z " fill="#7C6F66" transform="translate(288,176)"/>
<path d="M0,0 L1,3 L1,19 L-1,19 L-2,22 L-5,21 L-6,19 L-6,13 L-4,7 L-2,7 L-2,1 Z " fill="#4E4546" transform="translate(146,128)"/>
<path d="M0,0 L2,1 L-4,11 L-7,16 L-15,23 L-21,30 L-24,29 L-20,19 L-18,21 L-17,22 L-11,15 L-7,14 L-6,10 L-1,1 Z " fill="#5D5456" transform="translate(145,368)"/>
<path d="M0,0 L5,1 L2,7 L0,8 L3,9 L4,10 L3,17 L-2,18 L-3,9 L-5,7 L-2,6 L-1,2 Z " fill="#2B232C" transform="translate(327,143)"/>
<path d="M0,0 L3,0 L3,2 L-5,6 L-12,9 L-37,23 L-39,22 L-19,10 L-6,2 Z " fill="#AE9C89" transform="translate(151,109)"/>
<path d="M0,0 L5,1 L22,10 L18,12 L13,10 L4,6 L0,5 Z " fill="#9E9989" transform="translate(245,98)"/>
<path d="M0,0 L4,1 L-9,9 L-14,13 L-24,26 L-30,34 L-32,33 L-20,17 L-13,9 L-5,3 Z " fill="#C3C0BB" transform="translate(147,66)"/>
<path d="M0,0 L10,0 L13,2 L12,4 L7,7 L2,9 L-1,12 L-2,7 L-1,5 L1,5 Z " fill="#978C81" transform="translate(184,215)"/>
<path d="M0,0 L4,1 L0,7 L-1,21 L-2,23 L-1,29 L-3,28 L-5,21 L-5,7 L-7,3 L-5,3 L-5,5 L0,3 Z " fill="#746B65" transform="translate(179,184)"/>
<path d="M0,0 L3,1 L1,3 L-5,5 L-15,12 L-19,15 L-25,15 L-31,18 L-33,17 L-14,7 Z " fill="#312620" transform="translate(98,148)"/>
<path d="M0,0 L5,5 L3,6 L2,10 L-2,10 L-6,10 L-6,14 L-8,14 L-8,8 L-5,3 L0,2 Z " fill="#655E65" transform="translate(283,131)"/>
<path d="M0,0 L2,1 L1,5 L5,8 L10,8 L9,12 L5,14 L2,15 L3,10 L-1,7 L0,13 L-3,13 L-4,7 L-7,8 L-5,4 L-4,1 Z " fill="#433B3D" transform="translate(313,129)"/>
<path d="M0,0 L2,1 L-6,8 L-12,13 L-16,22 L-19,26 L-19,22 L-23,22 L-25,21 L-22,16 L-20,16 L-20,18 L-18,18 L-16,14 L-11,9 Z " fill="#92857B" transform="translate(137,269)"/>
<path d="M0,0 Z M-1,1 Z M-2,2 Z M-3,3 Z M-15,4 L-11,6 L-11,8 L-9,8 L-8,4 L-4,5 L-5,9 L-10,13 L-15,14 L-15,12 L-17,11 L-16,6 Z M-4,4 Z " fill="#655E61" transform="translate(278,216)"/>
<path d="M0,0 L1,2 L3,2 L3,5 L14,5 L12,10 L8,13 L6,13 L6,11 L2,10 L2,5 L-2,5 L-2,2 L0,2 Z " fill="#7C706A" transform="translate(200,186)"/>
<path d="M0,0 L4,1 L7,1 L9,3 L4,6 L15,14 L13,15 L4,9 L3,8 L-3,8 L-6,11 L-8,10 L-4,6 L-1,1 Z " fill="#8A7F77" transform="translate(187,222)"/>
<path d="M0,0 L4,1 L5,6 L4,9 L-2,11 L-7,12 L-11,15 L-9,11 L-7,9 L-6,5 L-1,5 Z " fill="#64574F" transform="translate(141,309)"/>
<path d="M0,0 L0,3 L-3,7 L-25,12 L-31,17 L-32,19 L-34,18 L-28,10 L-8,5 L-3,4 L-2,1 Z " fill="#9D9386" transform="translate(323,90)"/>
<path d="M0,0 L10,2 L14,17 L16,29 L14,30 L8,6 L8,4 L1,3 Z " fill="#5A5654" transform="translate(355,79)"/>
<path d="M0,0 L2,0 L3,3 L4,1 L11,1 L14,4 L16,4 L16,6 L14,6 L14,8 L9,9 L5,7 L2,7 Z " fill="#62574F" transform="translate(95,259)"/>
<path d="M0,0 L1,2 L-5,13 L-7,15 L-11,14 L-20,12 L-21,8 L-12,10 L-7,10 L-3,3 L-1,3 Z " fill="#7F7972" transform="translate(274,222)"/>
<path d="M0,0 L4,2 L5,5 L9,7 L12,13 L10,13 L10,15 L7,16 L0,4 L-2,1 Z " fill="#575B5F" transform="translate(282,118)"/>
<path d="M0,0 L0,3 L0,31 L-1,31 L-2,18 L-2,6 L-8,8 L-8,10 L-6,10 L-6,12 L-10,11 L-15,12 L-10,7 L-1,1 Z " fill="#51474B" transform="translate(90,217)"/>
<path d="M0,0 L3,0 L3,3 L1,3 L1,6 L3,6 L3,8 L-13,18 L-16,17 L-5,10 L-3,10 L-5,6 L-1,6 L-7,3 L-5,2 L-1,3 Z M3,5 Z " fill="#4E454B" transform="translate(72,222)"/>
<path d="M0,0 L2,1 L-6,10 L-5,12 L-2,9 L0,10 L1,9 L2,9 L2,14 L-2,15 L-10,15 L-10,11 L-7,6 L-4,6 L-2,2 Z " fill="#453A3A" transform="translate(333,81)"/>
<path d="M0,0 L22,0 L21,3 L14,3 L8,4 L8,6 L2,10 L0,13 L-2,12 L1,7 L5,6 L4,1 Z " fill="#7A726C" transform="translate(329,74)"/>
<path d="M0,0 L1,4 L-1,8 L-1,20 L-1,23 L-6,31 L-10,38 L-11,36 L-5,23 L-3,7 Z " fill="#696060" transform="translate(316,157)"/>
<path d="M0,0 L4,1 L-16,7 L-20,8 L-20,10 L-26,11 L-27,6 L-25,9 L-24,3 L-22,3 L-22,7 L-6,1 Z " fill="#786F6C" transform="translate(264,166)"/>
<path d="M0,0 L2,1 L-4,6 L-8,8 L-10,13 L-16,11 L-19,11 L-9,4 L-4,2 Z " fill="#61544C" transform="translate(104,147)"/>
<path d="M0,0 L2,0 L2,9 L1,11 L-6,14 L-11,19 L-14,18 L-8,13 L-6,10 L-4,10 L-4,6 L-1,3 Z " fill="#655E61" transform="translate(288,203)"/>
<path d="M0,0 L3,4 L-3,13 L-12,24 L-13,28 L-15,24 L-9,16 L-6,11 L-6,8 L-5,10 L-3,10 L-1,5 Z " fill="#A5A29F" transform="translate(97,122)"/>
<path d="M0,0 L2,0 L3,4 L-6,9 L-13,12 L-14,14 L-17,13 L-12,8 L-7,4 Z " fill="#655856" transform="translate(148,68)"/>
<path d="M0,0 L2,1 L-11,13 L-10,18 L-13,18 L-14,20 L-16,20 L-15,16 L-22,23 L-24,22 L-18,16 L-16,12 L-12,11 Z " fill="#8F857D" transform="translate(163,246)"/>
<path d="M0,0 L2,0 L1,14 L0,17 L-1,31 L-3,31 L-3,14 Z " fill="#8A7C70" transform="translate(121,215)"/>
<path d="M0,0 L1,0 L1,7 L4,7 L3,11 L1,17 L-1,17 L-2,20 L-4,20 L-4,9 L-2,9 L-2,4 L0,4 Z " fill="#4F4544" transform="translate(301,188)"/>
<path d="M0,0 L4,2 L5,13 L3,17 L1,12 L-1,12 L-2,6 L0,2 Z " fill="#332D31" transform="translate(286,137)"/>
<path d="M0,0 L7,6 L13,17 L13,20 L9,18 L6,14 L0,2 Z " fill="#E3E1D5" transform="translate(277,117)"/>
</svg>
